<svg width="779" height="1076" viewBox="0 0 779 1076" fill="none" xmlns="http://www.w3.org/2000/svg">
<path d="M45.5613 647.672L45.9881 648.099C106.557 708.7 204.758 708.7 265.327 648.099L265.754 647.672C326.322 587.072 326.322 488.819 265.754 428.218L265.327 427.791C204.758 367.191 106.557 367.191 45.988 427.791L45.5613 428.218C-15.0074 488.819 -15.0074 587.072 45.5613 647.672Z" fill="url(#paint0_linear_45_16281)"/>
<path d="M298.69 394.679L299.117 395.106C359.686 455.706 457.887 455.706 518.456 395.106L518.882 394.679C579.451 334.078 579.451 235.825 518.882 175.225L518.456 174.798C457.887 114.197 359.686 114.197 299.117 174.798L298.69 175.225C238.122 235.825 238.122 334.078 298.69 394.679Z" fill="url(#paint1_linear_45_16281)"/>
<path d="M551.819 141.685L552.246 142.112C612.815 202.713 711.016 202.713 771.585 142.112L772.011 141.685C832.58 81.0846 832.58 -17.1683 772.011 -77.7688L771.585 -78.1958C711.016 -138.796 612.815 -138.796 552.246 -78.1958L551.819 -77.7688C491.25 -17.1683 491.25 81.0846 551.819 141.685Z" fill="url(#paint2_linear_45_16281)"/>
<path d="M299.452 900.507L299.879 900.934C360.448 961.534 458.649 961.534 519.218 900.934L519.644 900.507C580.213 839.906 580.213 741.654 519.644 681.053L519.218 680.626C458.649 620.026 360.448 620.025 299.879 680.626L299.452 681.053C238.883 741.654 238.883 839.906 299.452 900.507Z" fill="url(#paint3_linear_45_16281)"/>
<path d="M552.154 647.94L552.581 648.367C613.15 708.968 711.351 708.968 771.92 648.367L772.347 647.94C832.915 587.34 832.915 489.087 772.347 428.487L771.92 428.06C711.351 367.459 613.15 367.459 552.581 428.06L552.154 428.487C491.586 489.087 491.586 587.34 552.154 647.94Z" fill="url(#paint4_linear_45_16281)"/>
<path d="M552.313 1153.77L552.74 1154.2C613.308 1214.8 711.51 1214.8 772.078 1154.2L772.505 1153.77C833.074 1093.17 833.074 994.915 772.505 934.315L772.078 933.888C711.51 873.287 613.308 873.287 552.74 933.888L552.313 934.315C491.744 994.915 491.744 1093.17 552.313 1153.77Z" fill="url(#paint5_linear_45_16281)"/>
<defs>
<linearGradient id="paint0_linear_45_16281" x1="409.033" y1="-46.4933" x2="409.033" y2="1119.03" gradientUnits="userSpaceOnUse">
<stop stop-color="#2129F0"/>
<stop offset="1" stop-color="#2129F0" stop-opacity="0"/>
</linearGradient>
<linearGradient id="paint1_linear_45_16281" x1="409.033" y1="-46.4933" x2="409.033" y2="1119.03" gradientUnits="userSpaceOnUse">
<stop stop-color="#2129F0"/>
<stop offset="1" stop-color="#2129F0" stop-opacity="0"/>
</linearGradient>
<linearGradient id="paint2_linear_45_16281" x1="409.033" y1="-46.4933" x2="409.033" y2="1119.03" gradientUnits="userSpaceOnUse">
<stop stop-color="#2129F0"/>
<stop offset="1" stop-color="#2129F0" stop-opacity="0"/>
</linearGradient>
<linearGradient id="paint3_linear_45_16281" x1="409.033" y1="-46.4933" x2="409.033" y2="1119.03" gradientUnits="userSpaceOnUse">
<stop stop-color="#2129F0"/>
<stop offset="1" stop-color="#2129F0" stop-opacity="0"/>
</linearGradient>
<linearGradient id="paint4_linear_45_16281" x1="409.033" y1="-46.4933" x2="409.033" y2="1119.03" gradientUnits="userSpaceOnUse">
<stop stop-color="#2129F0"/>
<stop offset="1" stop-color="#2129F0" stop-opacity="0"/>
</linearGradient>
<linearGradient id="paint5_linear_45_16281" x1="409.033" y1="-46.4933" x2="409.033" y2="1119.03" gradientUnits="userSpaceOnUse">
<stop stop-color="#2129F0"/>
<stop offset="1" stop-color="#2129F0" stop-opacity="0"/>
</linearGradient>
</defs>
</svg>
