<svg width="20" height="30" viewBox="0 0 20 30" fill="none" xmlns="http://www.w3.org/2000/svg">
<path d="M0.974184 17.6331L0.983459 17.6424C2.29996 18.9596 4.43442 18.9596 5.75092 17.6424L5.76019 17.6331C7.07669 16.3159 7.07669 14.1803 5.76019 12.8631L5.75091 12.8538C4.43442 11.5367 2.29995 11.5367 0.983459 12.8538L0.974183 12.8631C-0.342314 14.1803 -0.342313 16.3159 0.974184 17.6331Z" fill="#141E32"/>
<path d="M6.47418 12.1331L6.48346 12.1424C7.79996 13.4596 9.93442 13.4596 11.2509 12.1424L11.2602 12.1331C12.5767 10.8159 12.5767 8.68031 11.2602 7.36312L11.2509 7.35384C9.93442 6.03665 7.79996 6.03665 6.48346 7.35384L6.47418 7.36312C5.15769 8.68031 5.15769 10.8159 6.47418 12.1331Z" fill="#141E32"/>
<path d="M11.9742 6.63504L11.9835 6.64432C13.3 7.96151 15.4344 7.9615 16.7509 6.64432L16.7602 6.63504C18.0767 5.31785 18.0767 3.18226 16.7602 1.86507L16.7509 1.85579C15.4344 0.538607 13.3 0.538607 11.9835 1.8558L11.9742 1.86508C10.6577 3.18226 10.6577 5.31785 11.9742 6.63504Z" fill="#141E32"/>
<path d="M6.48981 23.1272L6.49908 23.1365C7.81558 24.4537 9.95004 24.4537 11.2665 23.1365L11.2758 23.1272C12.5923 21.81 12.5923 19.6745 11.2758 18.3573L11.2665 18.348C9.95004 17.0308 7.81558 17.0308 6.49908 18.348L6.48981 18.3573C5.17331 19.6745 5.17331 21.81 6.48981 23.1272Z" fill="#141E32"/>
<path d="M11.982 17.6389L11.9913 17.6482C13.3078 18.9654 15.4422 18.9654 16.7587 17.6482L16.768 17.6389C18.0845 16.3218 18.0845 14.1862 16.768 12.869L16.7587 12.8597C15.4422 11.5425 13.3078 11.5425 11.9913 12.8597L11.982 12.869C10.6655 14.1862 10.6655 16.3218 11.982 17.6389Z" fill="#141E32"/>
<path d="M11.9859 28.6331L11.9952 28.6424C13.3117 29.9596 15.4461 29.9596 16.7626 28.6424L16.7719 28.6331C18.0884 27.3159 18.0884 25.1803 16.7719 23.8631L16.7626 23.8538C15.4461 22.5367 13.3117 22.5367 11.9952 23.8538L11.9859 23.8631C10.6694 25.1803 10.6694 27.3159 11.9859 28.6331Z" fill="#141E32"/>
</svg>
