<svg width="127" height="30" viewBox="0 0 127 30" fill="none" xmlns="http://www.w3.org/2000/svg">
<g clip-path="url(#clip0_597_74808)">
<path d="M33.5134 19.7718V21.7929H25.6562V9.29883H27.8075V19.7587H33.5134V19.7718Z" fill="#141E32"/>
<path d="M43.9017 18.0002H36.4249C36.7529 19.3257 37.8941 20.1919 39.3894 20.1919C40.5962 20.1919 41.6324 19.6145 42.1571 18.9189L43.5344 20.1C42.59 21.2812 41.0684 22.0162 39.3369 22.0162C36.3987 22.0162 34.2344 19.9163 34.2344 17.1471C34.2344 14.378 36.3331 12.3438 39.1008 12.3438C41.8685 12.3438 43.9542 14.4042 43.9542 17.1996C43.9542 17.449 43.941 17.7377 43.9017 18.0002ZM36.4118 16.3335H41.7898C41.4881 15.0342 40.4125 14.1811 39.1008 14.1811C37.7891 14.1811 36.7529 15.0473 36.4249 16.3335H36.4118Z" fill="#141E32"/>
<path d="M54.5254 15.9805V21.7944H52.5053V16.6498C52.5053 15.2324 51.6002 14.3006 50.2098 14.3006C48.7407 14.3006 47.77 15.2587 47.77 16.6892V21.7944H45.75V12.5551H47.77V13.7494C48.5177 12.8307 49.5802 12.332 50.8788 12.332C53.0694 12.332 54.5385 13.7757 54.5385 15.9674L54.5254 15.9805Z" fill="#141E32"/>
<path d="M56.0469 20.5988L57.0962 19.1682C57.8046 19.8376 58.7097 20.2575 59.8508 20.2575C60.8871 20.2575 61.6741 19.8901 61.6741 19.247C61.6741 18.5252 60.769 18.2889 59.6803 18.0396C58.1981 17.6983 56.3355 17.2259 56.3355 15.1917C56.3355 13.2887 58.0144 12.3438 60.0082 12.3438C61.5298 12.3438 62.6973 12.9081 63.5236 13.5774L62.4611 15.0079C61.8315 14.4698 61.0183 14.1024 60.0607 14.1024C59.1556 14.1024 58.4211 14.4042 58.4211 15.0473C58.4211 15.7691 59.313 15.9922 60.428 16.2416C61.9102 16.5697 63.7597 17.0421 63.7597 19.0501C63.7597 21.0581 62.0545 22.0162 59.9033 22.0162C58.2243 22.0162 56.952 21.3862 56.0731 20.5988H56.0469Z" fill="#141E32"/>
<path d="M73.4665 19.7718V21.7929H65.6094V9.29883H67.7606V19.7587H73.4665V19.7718Z" fill="#141E32"/>
<path d="M83.8548 18.0002H76.3781C76.706 19.3257 77.8472 20.1919 79.3425 20.1919C80.5493 20.1919 81.5856 19.6145 82.1102 18.9189L83.4875 20.1C82.5431 21.2812 81.0215 22.0162 79.2901 22.0162C76.3518 22.0162 74.1875 19.9163 74.1875 17.1471C74.1875 14.378 76.2862 12.3438 79.054 12.3438C81.8217 12.3438 83.9073 14.4042 83.9073 17.1996C83.9073 17.449 83.8942 17.7377 83.8548 18.0002ZM76.3649 16.3335H81.743C81.4282 15.0342 80.3657 14.1811 79.0408 14.1811C77.716 14.1811 76.6929 15.0473 76.3649 16.3335Z" fill="#141E32"/>
<path d="M94.9665 8.76172V21.7939H92.9464V20.4683C92.1856 21.4264 91.0707 22.0038 89.7065 22.0038C87.0962 22.0038 85.168 19.9171 85.168 17.1742C85.168 14.4313 87.1093 12.3446 89.7065 12.3446C91.0576 12.3446 92.1856 12.922 92.9464 13.8801V8.76172H94.9665ZM92.9464 17.1742C92.9464 15.5468 91.7397 14.3001 90.1 14.3001C88.4604 14.3001 87.2405 15.5468 87.2405 17.1742C87.2405 18.8016 88.4473 20.0484 90.1 20.0484C91.7528 20.0484 92.9464 18.8016 92.9464 17.1742Z" fill="#141E32"/>
<path d="M106.55 24.5106L104.451 25.0749C104.399 24.3268 103.769 23.8675 102.838 23.8675H99.6768C98.0371 23.8675 96.9222 22.9094 96.9222 21.5183C96.9222 20.5996 97.3944 19.7203 98.1289 19.2872C97.355 18.5654 96.8828 17.5548 96.8828 16.3868C96.8828 14.0901 98.7323 12.3446 101.172 12.3446C101.946 12.3446 102.654 12.5283 103.271 12.8302C103.507 11.8459 104.36 11.2422 105.527 11.2422H106.275V13.1189H105.645C105.081 13.1189 104.674 13.4208 104.609 13.9195C105.147 14.5888 105.461 15.4419 105.461 16.3868C105.461 18.6835 103.599 20.429 101.172 20.429C100.556 20.429 99.9785 20.324 99.4538 20.114C99.139 20.3109 98.9684 20.6521 98.9684 21.0065C98.9684 21.5314 99.4013 21.8989 100.057 21.8989H103.218C105.015 21.8989 106.275 22.8963 106.55 24.5237V24.5106ZM98.9684 16.3868C98.9684 17.5811 99.9129 18.4998 101.172 18.4998C102.431 18.4998 103.363 17.5811 103.363 16.3868C103.363 15.1925 102.418 14.2738 101.172 14.2738C99.926 14.2738 98.9684 15.1794 98.9684 16.3868Z" fill="#141E32"/>
<path d="M116.574 18.0002H109.097C109.425 19.3257 110.566 20.1919 112.061 20.1919C113.268 20.1919 114.304 19.6145 114.829 18.9189L116.206 20.1C115.262 21.2812 113.74 22.0162 112.009 22.0162C109.071 22.0162 106.906 19.9163 106.906 17.1471C106.906 14.378 109.005 12.3438 111.773 12.3438C114.54 12.3438 116.626 14.4042 116.626 17.1996C116.626 17.449 116.613 17.7377 116.574 18.0002ZM109.084 16.3335H114.462C114.147 15.0342 113.084 14.1811 111.76 14.1811C110.435 14.1811 109.412 15.0473 109.084 16.3335Z" fill="#141E32"/>
<path d="M123.656 12.4219V14.5086H123.315C121.504 14.5086 120.442 15.611 120.442 17.3171V21.8055H118.422V12.5662H120.442V13.9311C121.124 12.9862 122.108 12.4219 123.315 12.4219H123.656Z" fill="#141E32"/>
<path d="M124.102 20.5061C124.102 19.6925 124.731 19.0625 125.544 19.0625C126.358 19.0625 126.987 19.6925 126.987 20.5061C126.987 21.3198 126.371 21.9367 125.544 21.9367C124.718 21.9367 124.102 21.3198 124.102 20.5061Z" fill="#141E32"/>
<path d="M0.974184 17.6331L0.983459 17.6424C2.29996 18.9596 4.43442 18.9596 5.75092 17.6424L5.76019 17.6331C7.07669 16.3159 7.07669 14.1803 5.76019 12.8631L5.75091 12.8538C4.43442 11.5367 2.29995 11.5367 0.983459 12.8538L0.974183 12.8631C-0.342314 14.1803 -0.342313 16.3159 0.974184 17.6331Z" fill="#141E32"/>
<path d="M6.47418 12.1331L6.48346 12.1424C7.79996 13.4596 9.93442 13.4596 11.2509 12.1424L11.2602 12.1331C12.5767 10.8159 12.5767 8.68031 11.2602 7.36312L11.2509 7.35384C9.93442 6.03665 7.79996 6.03665 6.48346 7.35384L6.47418 7.36312C5.15769 8.68031 5.15769 10.8159 6.47418 12.1331Z" fill="#141E32"/>
<path d="M11.9742 6.63504L11.9835 6.64432C13.3 7.96151 15.4344 7.9615 16.7509 6.64432L16.7602 6.63504C18.0767 5.31785 18.0767 3.18226 16.7602 1.86507L16.7509 1.85579C15.4344 0.538607 13.3 0.538607 11.9835 1.8558L11.9742 1.86508C10.6577 3.18226 10.6577 5.31785 11.9742 6.63504Z" fill="#141E32"/>
<path d="M6.48981 23.1272L6.49908 23.1365C7.81558 24.4537 9.95004 24.4537 11.2665 23.1365L11.2758 23.1272C12.5923 21.81 12.5923 19.6745 11.2758 18.3573L11.2665 18.348C9.95004 17.0308 7.81558 17.0308 6.49908 18.348L6.48981 18.3573C5.17331 19.6745 5.17331 21.81 6.48981 23.1272Z" fill="#141E32"/>
<path d="M11.982 17.6389L11.9913 17.6482C13.3078 18.9654 15.4422 18.9654 16.7587 17.6482L16.768 17.6389C18.0845 16.3218 18.0845 14.1862 16.768 12.869L16.7587 12.8597C15.4422 11.5425 13.3078 11.5425 11.9913 12.8597L11.982 12.869C10.6655 14.1862 10.6655 16.3218 11.982 17.6389Z" fill="#141E32"/>
<path d="M11.9859 28.6331L11.9952 28.6424C13.3117 29.9596 15.4461 29.9596 16.7626 28.6424L16.7719 28.6331C18.0884 27.3159 18.0884 25.1803 16.7719 23.8631L16.7626 23.8538C15.4461 22.5367 13.3117 22.5367 11.9952 23.8538L11.9859 23.8631C10.6694 25.1803 10.6694 27.3159 11.9859 28.6331Z" fill="#141E32"/>
</g>
<defs>
<clipPath id="clip0_597_74808">
<rect width="127" height="28.7547" fill="white" transform="translate(0 0.873047)"/>
</clipPath>
</defs>
</svg>
