<svg width="102" height="18" viewBox="0 0 102 18" fill="none" xmlns="http://www.w3.org/2000/svg">
<path d="M8.51341 11.7718V13.7929H0.65625V1.29883H2.80746V11.7587H8.51341V11.7718Z" fill="#141E32"/>
<path d="M18.9017 10.0002H11.4249C11.7529 11.3257 12.8941 12.1919 14.3894 12.1919C15.5962 12.1919 16.6324 11.6145 17.1571 10.9189L18.5344 12.1C17.59 13.2812 16.0684 14.0162 14.3369 14.0162C11.3987 14.0162 9.23438 11.9163 9.23438 9.14714C9.23438 6.37797 11.3331 4.34375 14.1008 4.34375C16.8685 4.34375 18.9542 6.40422 18.9542 9.19964C18.9542 9.44899 18.941 9.73772 18.9017 10.0002ZM11.4118 8.33345H16.7898C16.4881 7.03417 15.4125 6.18111 14.1008 6.18111C12.7891 6.18111 11.7529 7.0473 11.4249 8.33345H11.4118Z" fill="#141E32"/>
<path d="M29.5254 7.98051V13.7944H27.5053V8.64983C27.5053 7.23244 26.6002 6.30063 25.2098 6.30063C23.7407 6.30063 22.77 7.25869 22.77 8.68921V13.7944H20.75V4.55514H22.77V5.74943C23.5177 4.83075 24.5802 4.33203 25.8788 4.33203C28.0694 4.33203 29.5385 5.77567 29.5385 7.96738L29.5254 7.98051Z" fill="#141E32"/>
<path d="M31.0469 12.5988L32.0962 11.1682C32.8046 11.8376 33.7097 12.2575 34.8508 12.2575C35.8871 12.2575 36.6741 11.8901 36.6741 11.247C36.6741 10.5252 35.769 10.2889 34.6803 10.0396C33.1981 9.69835 31.3355 9.22588 31.3355 7.19166C31.3355 5.28868 33.0144 4.34375 35.0082 4.34375C36.5298 4.34375 37.6973 4.90808 38.5236 5.57741L37.4611 7.00793C36.8315 6.46984 36.0183 6.10237 35.0607 6.10237C34.1556 6.10237 33.4211 6.40422 33.4211 7.0473C33.4211 7.76912 34.313 7.99223 35.428 8.24158C36.9102 8.56968 38.7597 9.04215 38.7597 11.0501C38.7597 13.0581 37.0545 14.0162 34.9033 14.0162C33.2243 14.0162 31.952 13.3862 31.0731 12.5988H31.0469Z" fill="#141E32"/>
<path d="M48.4665 11.7718V13.7929H40.6094V1.29883H42.7606V11.7587H48.4665V11.7718Z" fill="#141E32"/>
<path d="M58.8548 10.0002H51.3781C51.706 11.3257 52.8472 12.1919 54.3425 12.1919C55.5493 12.1919 56.5856 11.6145 57.1102 10.9189L58.4875 12.1C57.5431 13.2812 56.0215 14.0162 54.2901 14.0162C51.3518 14.0162 49.1875 11.9163 49.1875 9.14714C49.1875 6.37797 51.2862 4.34375 54.054 4.34375C56.8217 4.34375 58.9073 6.40422 58.9073 9.19964C58.9073 9.44899 58.8942 9.73772 58.8548 10.0002ZM51.3649 8.33345H56.743C56.4282 7.03417 55.3657 6.18111 54.0408 6.18111C52.716 6.18111 51.6929 7.0473 51.3649 8.33345Z" fill="#141E32"/>
<path d="M69.9665 0.761719V13.7939H67.9464V12.4683C67.1856 13.4264 66.0707 14.0038 64.7065 14.0038C62.0962 14.0038 60.168 11.9171 60.168 9.17421C60.168 6.43129 62.1093 4.34457 64.7065 4.34457C66.0576 4.34457 67.1856 4.92203 67.9464 5.88008V0.761719H69.9665ZM67.9464 9.17421C67.9464 7.54683 66.7397 6.30005 65.1 6.30005C63.4604 6.30005 62.2405 7.54683 62.2405 9.17421C62.2405 10.8016 63.4473 12.0484 65.1 12.0484C66.7528 12.0484 67.9464 10.8016 67.9464 9.17421Z" fill="#141E32"/>
<path d="M81.5501 16.5106L79.4514 17.0749C79.3989 16.3268 78.7693 15.8675 77.838 15.8675H74.6768C73.0371 15.8675 71.9222 14.9094 71.9222 13.5183C71.9222 12.5996 72.3944 11.7203 73.1289 11.2872C72.355 10.5654 71.8828 9.55484 71.8828 8.3868C71.8828 6.0901 73.7323 4.3446 76.1721 4.3446C76.946 4.3446 77.6544 4.52834 78.2709 4.83019C78.507 3.84589 79.3596 3.24219 80.527 3.24219H81.2747V5.11892H80.6451C80.081 5.11892 79.6744 5.42077 79.6088 5.91949C80.1466 6.58881 80.4614 7.44187 80.4614 8.3868C80.4614 10.6835 78.5988 12.429 76.1721 12.429C75.5556 12.429 74.9785 12.324 74.4538 12.114C74.139 12.3109 73.9684 12.6521 73.9684 13.0065C73.9684 13.5314 74.4013 13.8989 75.0572 13.8989H78.2184C80.0154 13.8989 81.2747 14.8963 81.5501 16.5237V16.5106ZM73.9684 8.3868C73.9684 9.58109 74.9129 10.4998 76.1721 10.4998C77.4314 10.4998 78.3627 9.58109 78.3627 8.3868C78.3627 7.19252 77.4182 6.27384 76.1721 6.27384C74.926 6.27384 73.9684 7.17939 73.9684 8.3868Z" fill="#141E32"/>
<path d="M91.5736 10.0002H84.0968C84.4247 11.3257 85.5659 12.1919 87.0613 12.1919C88.2681 12.1919 89.3043 11.6145 89.829 10.9189L91.2063 12.1C90.2619 13.2812 88.7403 14.0162 87.0088 14.0162C84.0706 14.0162 81.9062 11.9163 81.9062 9.14714C81.9062 6.37797 84.005 4.34375 86.7727 4.34375C89.5404 4.34375 91.626 6.40422 91.626 9.19964C91.626 9.44899 91.6129 9.73772 91.5736 10.0002ZM84.0837 8.33345H89.4617C89.1469 7.03417 88.0844 6.18111 86.7596 6.18111C85.4348 6.18111 84.4116 7.0473 84.0837 8.33345Z" fill="#141E32"/>
<path d="M98.6556 4.42188V6.50859H98.3146C96.5044 6.50859 95.4419 7.61101 95.4419 9.31713V13.8055H93.4219V4.56624H95.4419V5.93114C96.124 4.98621 97.1078 4.42188 98.3146 4.42188H98.6556Z" fill="#141E32"/>
<path d="M99.1016 12.5061C99.1016 11.6925 99.7312 11.0625 100.544 11.0625C101.358 11.0625 101.987 11.6925 101.987 12.5061C101.987 13.3198 101.371 13.9367 100.544 13.9367C99.7181 13.9367 99.1016 13.3198 99.1016 12.5061Z" fill="#141E32"/>
</svg>
